<?xml version="1.0" ?><!DOCTYPE svg  PUBLIC '-//W3C//DTD SVG 1.1//EN'  'http://www.w3.org/Graphics/SVG/1.1/DTD/svg11.dtd'><svg height="512px" id="Слой_1" style="enable-background:new 0 0 512 512;" version="1.1" viewBox="0 0 512 512" width="512px" xml:space="preserve" xmlns="http://www.w3.org/2000/svg" xmlns:xlink="http://www.w3.org/1999/xlink"><path d="M500.805,249.946c-9.678-21.846-31.327-35.921-55.214-35.921h-1.702v-56.321  c0-41.213-33.457-74.754-74.591-74.754H228.462c-14.765,0-28.653,5.351-39.394,14.586c-10.716-8.764-24.201-13.633-38.238-13.633  c-17.06,0-33.349,7.211-44.792,19.859l-84.393,93.206C5.608,214.684,1.501,240.188,11.18,262.025  c9.698,21.845,31.347,35.921,55.234,35.921h1.701v56.37c0,41.213,33.457,74.734,74.592,74.734h140.861  c14.76,0,28.648-5.36,39.408-14.607c10.722,8.755,24.207,13.633,38.223,13.633c17.075,0,33.349-7.21,44.787-19.868l84.374-93.197  C506.397,297.287,510.504,271.791,500.805,249.946z M142.707,368.627c-7.805,0-14.168-6.433-14.168-14.321V237.553l-62.095-0.019  l84.388-93.206l84.384,93.225l-62.169,0.02v86.005h66.772l43.741,45.049H142.707z M361.194,367.643l-84.413-93.206h62.164v-86.045  h-66.762l-43.726-45.029h140.842c7.805,0,14.158,6.432,14.158,14.341v116.733l62.104,0.02L361.194,367.643z" style="fill:#3C3C3B;"/></svg>